<svg width="716" height="391" viewBox="0 0 716 391" fill="none" xmlns="http://www.w3.org/2000/svg">
<path d="M236.005 156.328C235.365 156.328 234.789 156.104 234.277 155.656C233.829 155.144 233.605 154.568 233.605 153.928V107.368C233.605 106.728 233.797 106.184 234.181 105.736C234.629 105.224 235.141 104.968 235.717 104.968H262.597C263.301 104.968 263.877 105.192 264.325 105.64C264.773 106.088 264.997 106.664 264.997 107.368C264.997 108.008 264.773 108.584 264.325 109.096C263.877 109.544 263.301 109.768 262.597 109.768H238.405V126.472H258.469C259.173 126.472 259.749 126.696 260.197 127.144C260.645 127.592 260.869 128.168 260.869 128.872C260.869 129.512 260.645 130.088 260.197 130.6C259.749 131.048 259.173 131.272 258.469 131.272H238.405V151.528H262.789C263.493 151.528 264.069 151.752 264.517 152.2C264.965 152.648 265.189 153.224 265.189 153.928C265.189 154.568 264.965 155.144 264.517 155.656C264.069 156.104 263.493 156.328 262.789 156.328H236.005ZM260.965 88.3599C258.789 89.6399 256.645 90.9519 254.533 92.2959C252.421 93.6399 250.693 94.8239 249.349 95.8479C249.029 96.1039 248.613 96.2319 248.101 96.2319C247.461 96.2319 246.949 96.0079 246.565 95.5599C246.181 95.1119 245.989 94.5999 245.989 94.0239C245.989 93.2559 246.277 92.6799 246.853 92.2959C248.325 91.3359 250.149 90.1839 252.325 88.8399C254.501 87.4319 256.677 86.0239 258.853 84.6159C259.173 84.4239 259.493 84.3279 259.813 84.3279C260.517 84.3279 261.061 84.5519 261.445 84.9999C261.829 85.4479 262.021 85.9279 262.021 86.4399C262.021 87.3359 261.669 87.9759 260.965 88.3599ZM335.787 156.328C335.147 156.328 334.571 156.104 334.059 155.656C333.611 155.144 333.387 154.568 333.387 153.928V149.608C331.275 151.592 328.971 153.224 326.475 154.504C323.979 155.72 321.483 156.328 318.987 156.328C316.619 156.328 314.411 155.848 312.363 154.888C310.379 153.928 308.779 152.296 307.563 149.992C306.411 147.624 305.835 144.392 305.835 140.296V121.096C305.835 120.392 306.059 119.816 306.507 119.368C307.019 118.92 307.595 118.696 308.235 118.696C308.939 118.696 309.515 118.92 309.963 119.368C310.411 119.816 310.635 120.392 310.635 121.096V140.296C310.635 144.2 311.371 147.048 312.843 148.84C314.379 150.632 316.427 151.528 318.987 151.528C321.611 151.528 324.203 150.696 326.763 149.032C329.387 147.368 331.595 145.32 333.387 142.888V121.096C333.387 120.392 333.611 119.816 334.059 119.368C334.571 118.92 335.147 118.696 335.787 118.696C336.491 118.696 337.067 118.92 337.515 119.368C337.963 119.816 338.187 120.392 338.187 121.096V153.928C338.187 154.568 337.963 155.144 337.515 155.656C337.067 156.104 336.491 156.328 335.787 156.328ZM408.945 156.328C408.305 156.328 407.729 156.104 407.217 155.656C406.769 155.144 406.545 154.568 406.545 153.928V133.768C406.545 129.992 405.777 127.336 404.241 125.8C402.769 124.264 400.849 123.496 398.481 123.496C396.113 123.496 393.809 124.168 391.569 125.512C389.329 126.856 387.281 128.552 385.425 130.6V153.928C385.425 154.568 385.201 155.144 384.753 155.656C384.305 156.104 383.729 156.328 383.025 156.328C382.385 156.328 381.809 156.104 381.297 155.656C380.849 155.144 380.625 154.568 380.625 153.928V133.768C380.625 129.992 379.857 127.336 378.321 125.8C376.849 124.264 374.929 123.496 372.561 123.496C370.193 123.496 367.857 124.232 365.553 125.704C363.249 127.112 361.169 128.84 359.313 130.888V153.928C359.313 154.568 359.089 155.144 358.641 155.656C358.193 156.104 357.617 156.328 356.913 156.328C356.273 156.328 355.697 156.104 355.185 155.656C354.737 155.144 354.513 154.568 354.513 153.928V121.096C354.513 120.392 354.737 119.816 355.185 119.368C355.697 118.92 356.273 118.696 356.913 118.696C357.617 118.696 358.193 118.92 358.641 119.368C359.089 119.816 359.313 120.392 359.313 121.096V124.36C361.361 122.696 363.505 121.352 365.745 120.328C367.985 119.24 370.257 118.696 372.561 118.696C375.057 118.696 377.329 119.144 379.377 120.04C381.425 120.936 382.993 122.696 384.081 125.32C386.257 123.336 388.561 121.736 390.993 120.52C393.489 119.304 395.985 118.696 398.481 118.696C400.849 118.696 402.993 119.112 404.913 119.944C406.833 120.776 408.369 122.28 409.521 124.456C410.737 126.568 411.345 129.672 411.345 133.768V153.928C411.345 154.568 411.121 155.144 410.673 155.656C410.225 156.104 409.649 156.328 408.945 156.328Z" fill="black"/>
<path d="M132.005 263.328C131.365 263.328 130.789 263.104 130.277 262.656C129.829 262.144 129.605 261.568 129.605 260.928V214.368C129.605 213.664 129.829 213.088 130.277 212.64C130.789 212.192 131.365 211.968 132.005 211.968H145.733C149.509 211.968 152.805 212.736 155.621 214.272C158.437 215.744 160.613 217.76 162.149 220.32C163.749 222.88 164.549 225.824 164.549 229.152C164.549 232.224 163.845 235.072 162.437 237.696C161.093 240.32 159.013 242.432 156.197 244.032C153.445 245.632 149.957 246.432 145.733 246.432H134.405V260.928C134.405 261.568 134.181 262.144 133.733 262.656C133.285 263.104 132.709 263.328 132.005 263.328ZM134.405 216.768V241.632H145.733C150.277 241.632 153.733 240.448 156.101 238.08C158.533 235.648 159.749 232.672 159.749 229.152C159.749 225.44 158.437 222.464 155.813 220.224C153.189 217.92 149.829 216.768 145.733 216.768H134.405ZM202.025 262.464C200.617 260.992 199.529 259.136 198.761 256.896C196.585 258.944 194.185 260.544 191.561 261.696C189.001 262.784 186.217 263.328 183.209 263.328C180.265 263.328 177.929 262.784 176.201 261.696C174.473 260.608 173.257 259.264 172.553 257.664C171.849 256.064 171.497 254.56 171.497 253.152C171.497 251.616 171.753 250.144 172.265 248.736C172.841 247.264 173.705 245.984 174.857 244.896C176.457 243.424 178.601 242.176 181.289 241.152C183.977 240.128 187.273 239.616 191.177 239.616C193.225 239.616 195.401 239.712 197.705 239.904C197.449 237.024 196.489 234.752 194.825 233.088C193.161 231.36 190.665 230.496 187.337 230.496C186.057 230.496 184.745 230.624 183.401 230.88C182.057 231.072 181.033 231.296 180.329 231.552C179.497 231.872 178.889 232.032 178.505 232.032C177.865 232.032 177.289 231.808 176.777 231.36C176.265 230.848 176.009 230.304 176.009 229.728C176.009 228.512 176.553 227.712 177.641 227.328C178.729 227.008 180.169 226.656 181.961 226.272C183.817 225.888 185.609 225.696 187.337 225.696C192.585 225.696 196.425 227.136 198.857 230.016C201.353 232.896 202.601 236.64 202.601 241.248V249.984C202.601 252.16 202.825 253.984 203.273 255.456C203.785 256.864 204.521 258.112 205.481 259.2C205.929 259.648 206.153 260.192 206.153 260.832C206.153 261.472 205.897 262.048 205.385 262.56C204.937 263.008 204.393 263.232 203.753 263.232C203.113 263.232 202.537 262.976 202.025 262.464ZM183.209 258.528C185.961 258.528 188.585 257.92 191.081 256.704C193.577 255.424 195.817 253.504 197.801 250.944V244.704C195.433 244.512 193.225 244.416 191.177 244.416C185.097 244.416 180.809 245.664 178.313 248.16C177.545 248.928 177.001 249.728 176.681 250.56C176.425 251.392 176.297 252.256 176.297 253.152C176.297 254.432 176.841 255.648 177.929 256.8C179.081 257.952 180.841 258.528 183.209 258.528ZM218.652 211.872C218.652 211.168 218.876 210.592 219.324 210.144C219.836 209.696 220.412 209.472 221.052 209.472C221.756 209.472 222.332 209.696 222.78 210.144C223.228 210.592 223.452 211.168 223.452 211.872V260.928C223.452 261.568 223.228 262.144 222.78 262.656C222.332 263.104 221.756 263.328 221.052 263.328C220.412 263.328 219.836 263.104 219.324 262.656C218.876 262.144 218.652 261.568 218.652 260.928V211.872ZM240.964 228.096C240.964 227.392 241.188 226.816 241.636 226.368C242.148 225.92 242.724 225.696 243.364 225.696C244.068 225.696 244.644 225.92 245.092 226.368C245.54 226.816 245.764 227.392 245.764 228.096V260.928C245.764 261.568 245.54 262.144 245.092 262.656C244.644 263.104 244.068 263.328 243.364 263.328C242.724 263.328 242.148 263.104 241.636 262.656C241.188 262.144 240.964 261.568 240.964 260.928V228.096ZM252.484 207.36C251.076 208.768 249.732 210.24 248.452 211.776C247.236 213.248 246.02 214.752 244.804 216.288C244.42 216.8 243.876 217.056 243.172 217.056C242.532 217.056 241.988 216.832 241.54 216.384C241.156 215.872 240.964 215.36 240.964 214.848C240.964 214.4 241.124 213.952 241.444 213.504C242.596 211.968 243.876 210.464 245.284 208.992C246.692 207.52 248.036 205.984 249.316 204.384C249.7 203.936 250.212 203.712 250.852 203.712C251.428 203.712 251.94 203.936 252.388 204.384C252.836 204.832 253.06 205.344 253.06 205.92C253.06 206.496 252.868 206.976 252.484 207.36ZM292.653 263.328C292.013 263.328 291.437 263.104 290.925 262.656C290.477 262.144 290.253 261.568 290.253 260.928V241.728C290.253 237.76 289.485 234.912 287.949 233.184C286.477 231.392 284.461 230.496 281.901 230.496C279.213 230.496 276.653 231.232 274.221 232.704C271.789 234.112 269.549 235.84 267.501 237.888V260.928C267.501 261.568 267.277 262.144 266.829 262.656C266.381 263.104 265.805 263.328 265.101 263.328C264.461 263.328 263.885 263.104 263.373 262.656C262.925 262.144 262.701 261.568 262.701 260.928V228.096C262.701 227.392 262.925 226.816 263.373 226.368C263.885 225.92 264.461 225.696 265.101 225.696C265.805 225.696 266.381 225.92 266.829 226.368C267.277 226.816 267.501 227.392 267.501 228.096V231.552C269.677 229.824 271.949 228.416 274.317 227.328C276.685 226.24 279.213 225.696 281.901 225.696C284.333 225.696 286.541 226.176 288.525 227.136C290.509 228.096 292.077 229.76 293.229 232.128C294.445 234.432 295.053 237.632 295.053 241.728V260.928C295.053 261.568 294.829 262.144 294.381 262.656C293.933 263.104 293.357 263.328 292.653 263.328ZM340.18 263.328C339.54 263.328 338.964 263.104 338.452 262.656C338.004 262.144 337.78 261.568 337.78 260.928V256.896C335.924 258.88 333.812 260.448 331.444 261.6C329.14 262.752 326.58 263.328 323.764 263.328C320.628 263.328 317.78 262.592 315.22 261.12C312.724 259.648 310.708 257.568 309.172 254.88C307.7 252.128 306.964 248.928 306.964 245.28C306.964 241.44 307.764 238.048 309.364 235.104C311.028 232.16 313.268 229.856 316.084 228.192C318.964 226.528 322.196 225.696 325.78 225.696C328.084 225.696 330.196 226.016 332.116 226.656C334.1 227.232 335.988 228.064 337.78 229.152V211.872C337.78 211.168 338.004 210.592 338.452 210.144C338.964 209.696 339.54 209.472 340.18 209.472C340.884 209.472 341.46 209.696 341.908 210.144C342.356 210.592 342.58 211.168 342.58 211.872V260.928C342.58 261.568 342.356 262.144 341.908 262.656C341.46 263.104 340.884 263.328 340.18 263.328ZM323.764 258.528C326.964 258.528 329.684 257.696 331.924 256.032C334.228 254.368 336.18 252.224 337.78 249.6V234.912C335.988 233.504 334.132 232.416 332.212 231.648C330.356 230.88 328.212 230.496 325.78 230.496C323.092 230.496 320.692 231.136 318.58 232.416C316.468 233.696 314.804 235.456 313.588 237.696C312.372 239.872 311.764 242.4 311.764 245.28C311.764 249.184 312.884 252.384 315.124 254.88C317.428 257.312 320.308 258.528 323.764 258.528ZM361.288 263.328C360.648 263.328 360.072 263.104 359.56 262.656C359.112 262.144 358.888 261.568 358.888 260.928V228.096C358.888 227.392 359.112 226.816 359.56 226.368C360.072 225.92 360.648 225.696 361.288 225.696C361.992 225.696 362.568 225.92 363.016 226.368C363.464 226.816 363.688 227.392 363.688 228.096V233.76C366.184 231.136 368.84 229.152 371.656 227.808C374.472 226.464 377.192 225.792 379.816 225.792C380.52 225.792 381.064 226.016 381.448 226.464C381.896 226.848 382.12 227.36 382.12 228C382.12 229.472 381.416 230.304 380.008 230.496C376.296 230.944 373.16 232.128 370.6 234.048C368.04 235.968 365.736 238.464 363.688 241.536V260.928C363.688 261.568 363.464 262.144 363.016 262.656C362.568 263.104 361.992 263.328 361.288 263.328ZM406.222 225.312C410.126 225.312 413.486 226.208 416.302 228C419.182 229.728 421.39 232.096 422.926 235.104C424.526 238.048 425.326 241.344 425.326 244.992C425.326 248.512 424.526 251.68 422.926 254.496C421.39 257.312 419.182 259.552 416.302 261.216C413.486 262.88 410.126 263.712 406.222 263.712C402.382 263.712 399.022 262.88 396.142 261.216C393.262 259.552 391.022 257.28 389.422 254.4C387.886 251.52 387.118 248.32 387.118 244.8C387.118 241.216 387.886 237.952 389.422 235.008C390.958 232.064 393.166 229.728 396.046 228C398.926 226.208 402.318 225.312 406.222 225.312ZM406.222 230.112C403.278 230.112 400.718 230.784 398.542 232.128C396.43 233.472 394.798 235.264 393.646 237.504C392.494 239.68 391.918 242.112 391.918 244.8C391.918 248.768 393.198 252.128 395.758 254.88C398.382 257.568 401.87 258.912 406.222 258.912C410.574 258.912 414.03 257.568 416.59 254.88C419.214 252.192 420.526 248.896 420.526 244.992C420.526 242.24 419.95 239.744 418.798 237.504C417.646 235.264 415.982 233.472 413.806 232.128C411.694 230.784 409.166 230.112 406.222 230.112ZM492.633 263.328C491.993 263.328 491.417 263.104 490.905 262.656C490.457 262.144 490.233 261.568 490.233 260.928V240.768C490.233 236.992 489.465 234.336 487.929 232.8C486.457 231.264 484.537 230.496 482.169 230.496C479.801 230.496 477.497 231.168 475.257 232.512C473.017 233.856 470.969 235.552 469.113 237.6V260.928C469.113 261.568 468.889 262.144 468.441 262.656C467.993 263.104 467.417 263.328 466.713 263.328C466.073 263.328 465.497 263.104 464.985 262.656C464.537 262.144 464.313 261.568 464.313 260.928V240.768C464.313 236.992 463.545 234.336 462.009 232.8C460.537 231.264 458.617 230.496 456.249 230.496C453.881 230.496 451.545 231.232 449.241 232.704C446.937 234.112 444.857 235.84 443.001 237.888V260.928C443.001 261.568 442.777 262.144 442.329 262.656C441.881 263.104 441.305 263.328 440.601 263.328C439.961 263.328 439.385 263.104 438.873 262.656C438.425 262.144 438.201 261.568 438.201 260.928V228.096C438.201 227.392 438.425 226.816 438.873 226.368C439.385 225.92 439.961 225.696 440.601 225.696C441.305 225.696 441.881 225.92 442.329 226.368C442.777 226.816 443.001 227.392 443.001 228.096V231.36C445.049 229.696 447.193 228.352 449.433 227.328C451.673 226.24 453.945 225.696 456.249 225.696C458.745 225.696 461.017 226.144 463.065 227.04C465.113 227.936 466.681 229.696 467.769 232.32C469.945 230.336 472.249 228.736 474.681 227.52C477.177 226.304 479.673 225.696 482.169 225.696C484.537 225.696 486.681 226.112 488.601 226.944C490.521 227.776 492.057 229.28 493.209 231.456C494.425 233.568 495.033 236.672 495.033 240.768V260.928C495.033 261.568 494.809 262.144 494.361 262.656C493.913 263.104 493.337 263.328 492.633 263.328ZM525.94 225.312C529.844 225.312 533.204 226.208 536.02 228C538.9 229.728 541.108 232.096 542.644 235.104C544.244 238.048 545.044 241.344 545.044 244.992C545.044 248.512 544.244 251.68 542.644 254.496C541.108 257.312 538.9 259.552 536.02 261.216C533.204 262.88 529.844 263.712 525.94 263.712C522.1 263.712 518.74 262.88 515.86 261.216C512.98 259.552 510.74 257.28 509.14 254.4C507.604 251.52 506.836 248.32 506.836 244.8C506.836 241.216 507.604 237.952 509.14 235.008C510.676 232.064 512.884 229.728 515.764 228C518.644 226.208 522.036 225.312 525.94 225.312ZM525.94 230.112C522.996 230.112 520.436 230.784 518.26 232.128C516.148 233.472 514.516 235.264 513.364 237.504C512.212 239.68 511.636 242.112 511.636 244.8C511.636 248.768 512.916 252.128 515.476 254.88C518.1 257.568 521.588 258.912 525.94 258.912C530.292 258.912 533.748 257.568 536.308 254.88C538.932 252.192 540.244 248.896 540.244 244.992C540.244 242.24 539.668 239.744 538.516 237.504C537.364 235.264 535.7 233.472 533.524 232.128C531.412 230.784 528.884 230.112 525.94 230.112ZM582.792 214.848C584.648 213.632 586.568 212.704 588.552 212.064C590.6 211.424 593.096 211.104 596.04 211.104C599.24 211.104 601.896 211.68 604.008 212.832C606.12 213.984 607.688 215.488 608.712 217.344C609.736 219.2 610.248 221.184 610.248 223.296C610.248 226.112 609.32 228.576 607.464 230.688C605.672 232.8 603.368 234.592 600.552 236.064C598.568 237.088 597.16 238.112 596.328 239.136C595.56 240.096 595.112 241.568 594.984 243.552C594.92 244.192 594.632 244.736 594.12 245.184C593.672 245.632 593.128 245.856 592.488 245.856C591.848 245.856 591.304 245.632 590.856 245.184C590.408 244.672 590.184 244.128 590.184 243.552C590.184 242.016 590.344 240.608 590.664 239.328C591.048 238.048 591.816 236.8 592.968 235.584C594.12 234.368 595.944 233.12 598.44 231.84C600.296 230.88 601.928 229.728 603.336 228.384C604.744 226.976 605.448 225.28 605.448 223.296C605.448 221.248 604.584 219.52 602.856 218.112C601.192 216.64 598.92 215.904 596.04 215.904C593.672 215.904 591.656 216.192 589.992 216.768C588.392 217.28 586.824 217.984 585.288 218.88C585.096 218.944 584.904 219.04 584.712 219.168C584.52 219.232 584.296 219.264 584.04 219.264C583.4 219.264 582.824 219.04 582.312 218.592C581.864 218.08 581.64 217.504 581.64 216.864C581.64 215.968 582.024 215.296 582.792 214.848ZM593.064 253.44C594.344 253.44 595.4 253.952 596.232 254.976C597.064 255.936 597.48 257.152 597.48 258.624C597.48 260.416 597.064 261.728 596.232 262.56C595.464 263.392 594.44 263.808 593.16 263.808C592.136 263.808 591.144 263.392 590.184 262.56C589.224 261.728 588.744 260.416 588.744 258.624C588.744 257.088 589.128 255.84 589.896 254.88C590.664 253.92 591.72 253.44 593.064 253.44Z" fill="black"/>
<path d="M83.0091 109.746C82.9303 109.921 82.924 110.12 82.9917 110.299C83.0595 110.478 83.1957 110.623 83.3704 110.702C83.545 110.781 83.7439 110.787 83.9232 110.72C84.1025 110.652 84.2475 110.516 84.3264 110.341C84.3264 110.341 84.3264 110.341 84.3264 110.341C86.3484 105.862 88.4278 101.427 90.5852 97.033C92.7385 92.6058 95.0529 88.2644 97.1522 83.7605C97.1585 83.7468 97.1647 83.7332 97.171 83.7196C104.11 69.9257 114.69 57.8289 125.946 47.3246C125.955 47.3168 125.964 47.309 125.974 47.3013C133.12 41.3962 140.39 35.6367 147.83 30.1112C147.855 30.093 147.879 30.0748 147.904 30.0566C156.832 23.0255 167.276 19.3473 178.171 15.6553C178.216 15.6352 178.261 15.6151 178.307 15.5949C186.879 11.8596 195.834 8.90324 204.746 5.9153C204.777 5.90494 204.809 5.89461 204.84 5.88431C217.465 1.80532 231.081 2.06412 244.43 1.76014C244.444 1.75996 244.457 1.75979 244.471 1.75962C253.472 1.65998 262.569 3.28838 270.723 7.0485C270.724 7.04907 270.725 7.04964 270.726 7.05022C278.307 10.6084 286.026 13.867 293.599 17.3246C293.613 17.3313 293.628 17.338 293.643 17.3448C299.611 20.1069 304.598 24.7067 310.174 28.6007C310.69 28.9606 311.213 29.3151 311.742 29.6606C311.747 29.6641 311.752 29.6675 311.757 29.6709L311.674 29.6095C313.019 30.7335 314.28 31.9854 315.225 33.3724C315.23 33.3794 315.235 33.3864 315.239 33.3934C316.371 35.4394 318.298 37.5622 320.345 38.9112C320.453 38.9862 320.585 39.0253 320.718 39.0129C320.85 39.0007 320.972 38.9391 321.058 38.8401C321.143 38.7411 321.186 38.6116 321.179 38.4785C321.172 38.3454 321.114 38.2206 321.024 38.1247C321.024 38.1247 321.024 38.1247 321.024 38.1247C319.293 36.3206 318.024 34.6231 316.747 32.3807C316.742 32.3725 316.736 32.3643 316.731 32.3561C315.625 30.7401 314.259 29.4287 312.823 28.2267L312.74 28.1652C312.735 28.1619 312.73 28.1586 312.725 28.1553C312.213 27.8214 311.705 27.4774 311.201 27.1267C305.751 23.3395 300.704 18.6549 294.391 15.7238C294.376 15.7171 294.361 15.7103 294.346 15.7035C286.714 12.2242 279.036 8.98848 271.474 5.44423C271.473 5.44363 271.472 5.44304 271.47 5.44245C263.013 1.5511 253.686 -0.102207 244.448 0.00488082C244.434 0.0050656 244.42 0.0052546 244.407 0.00544782C231.039 0.330602 217.348 0.0394237 204.302 4.26103C204.27 4.2717 204.238 4.2824 204.206 4.29313C195.278 7.30333 186.34 10.3227 177.654 14.1261C177.608 14.1467 177.562 14.1672 177.516 14.1877C167.093 17.7186 155.919 21.6874 146.972 28.8034C146.947 28.8217 146.923 28.8399 146.898 28.8582C139.44 34.4132 132.157 40.2013 125.005 46.1294C124.995 46.1377 124.985 46.146 124.975 46.1543C113.46 56.947 103.02 68.928 95.8577 83.1162C95.8515 83.1296 95.8454 83.143 95.8392 83.1564C93.7742 87.5882 91.4465 91.9584 89.2877 96.3963C87.1231 100.805 85.0365 105.255 83.0091 109.746Z" fill="#050505"/>
<path d="M327.301 37.7263C327.091 37.8314 326.931 38.0155 326.857 38.2383C326.783 38.4611 326.8 38.7042 326.905 38.9141C327.01 39.1241 327.194 39.2837 327.417 39.3579C327.64 39.432 327.883 39.4146 328.093 39.3096C332.22 37.2435 336.403 35.3319 340.679 33.6337C349.442 30.1172 358.597 27.7066 367.799 25.3728C367.809 25.3703 367.819 25.3677 367.829 25.3652C378.417 22.6289 389.358 21.6497 400.316 21.4392C400.334 21.4388 400.353 21.4384 400.372 21.438C420.584 21.2044 440.83 23.7443 460.822 27.0093C460.856 27.0151 460.89 27.0208 460.924 27.0265C480.879 31.2469 498.88 42.4214 516.222 53.2681C516.238 53.2782 516.254 53.2883 516.269 53.2983C523.647 58.2156 529.673 65.1264 536.452 71.1809C536.462 71.1899 536.472 71.1989 536.482 71.2079C543.339 77.2165 548.149 85 551.437 93.5649L551.491 93.6724C551.494 93.6778 551.498 93.6832 551.501 93.6887C553.186 96.6582 554.585 99.8879 555.905 103.109C556.531 104.651 557.131 106.204 557.707 107.766C557.706 107.763 557.706 107.765 557.707 107.768C558.677 110.541 559.787 113.361 560.989 116.061C561.096 116.306 561.296 116.497 561.545 116.593C561.794 116.689 562.072 116.682 562.316 116.573C562.561 116.464 562.753 116.263 562.849 116.014C562.945 115.765 562.937 115.489 562.828 115.246C562.828 115.246 562.828 115.246 562.828 115.246C561.609 112.555 560.527 109.899 559.537 107.102C559.536 107.1 559.535 107.097 559.535 107.095C558.945 105.511 558.333 103.94 557.694 102.379C556.341 99.1091 554.936 95.8684 553.15 92.7311C553.147 92.7253 553.143 92.7195 553.14 92.7137L553.194 92.8212C549.901 84.2445 544.782 75.9602 537.73 69.8224C537.72 69.8136 537.71 69.8047 537.7 69.7958C530.985 63.8226 524.998 56.9112 517.271 51.7447C517.255 51.7346 517.24 51.7245 517.224 51.7144C499.75 40.8111 481.859 29.5859 461.232 25.1997C461.198 25.194 461.164 25.1882 461.13 25.1825C441.048 21.9054 420.779 19.3578 400.331 19.5966C400.312 19.597 400.293 19.5974 400.274 19.5979C389.251 19.8115 378.134 20.8716 367.393 23.6493C367.383 23.6518 367.373 23.6544 367.363 23.6569C358.16 25.9911 348.905 28.4251 340.025 31.9884C335.695 33.7081 331.464 35.642 327.301 37.7263Z" fill="#050505"/>
<path d="M564.713 114.708C564.463 114.708 564.222 114.807 564.045 114.985C563.867 115.162 563.768 115.403 563.768 115.654C563.768 115.904 563.867 116.145 564.045 116.322C564.222 116.5 564.463 116.599 564.713 116.599C569.402 116.6 574.072 116.67 578.742 116.855C585.238 117.094 591.715 117.656 598.227 118.227C598.237 118.228 598.248 118.229 598.258 118.23C607.661 118.986 616.876 121.803 626.519 122.677C626.52 122.677 626.521 122.678 626.522 122.678C640.583 123.502 652.904 131.012 664.793 138.359C664.817 138.374 664.841 138.389 664.865 138.404C676.016 145.275 683.565 156.381 690.788 167.382C690.792 167.387 690.795 167.392 690.799 167.397C698.826 180.145 704.161 194.762 708.147 209.372C708.148 209.375 708.149 209.379 708.15 209.382C711.828 226.667 712.559 244.734 713.449 262.565C713.45 262.586 713.451 262.608 713.452 262.629L713.454 262.496C712.815 270.2 712.403 277.936 711.078 285.453C710.489 288.523 709.771 291.7 708.181 294.162C708.181 294.163 708.181 294.163 708.181 294.163L708.365 293.962C707.399 294.769 706.156 295.463 704.785 296.047C704.661 296.101 704.56 296.207 704.503 296.335C704.445 296.463 704.435 296.604 704.478 296.732C704.521 296.86 704.613 296.967 704.736 297.035C704.859 297.104 705.003 297.128 705.135 297.096C705.135 297.096 705.135 297.096 705.135 297.096C706.559 296.751 708.188 296.483 709.534 295.408L709.719 295.207C709.719 295.207 709.72 295.207 709.72 295.206C711.643 292.265 712.357 288.998 713.025 285.826C714.49 278.111 714.995 270.379 715.638 262.669L715.64 262.537C715.639 262.515 715.638 262.494 715.637 262.472C714.734 244.545 713.977 226.618 710.171 208.86C710.17 208.856 710.169 208.853 710.168 208.849C706.075 193.998 700.779 179.442 692.468 166.265C692.464 166.26 692.46 166.255 692.457 166.249C685.258 155.333 677.489 143.864 665.899 136.744C665.875 136.729 665.851 136.714 665.827 136.699C653.953 129.378 641.194 121.613 626.7 120.775C626.699 120.775 626.698 120.775 626.697 120.775C617.297 119.94 608.077 117.132 598.417 116.345C598.406 116.344 598.396 116.343 598.386 116.342C591.9 115.773 585.351 115.205 578.817 114.965C574.116 114.779 569.422 114.708 564.713 114.708Z" fill="#050505"/>
<path d="M86.8131 113.487C86.9823 113.396 87.1087 113.243 87.1645 113.059C87.2203 112.876 87.201 112.677 87.1107 112.508C87.0204 112.339 86.8666 112.213 86.6831 112.157C86.4996 112.101 86.3015 112.12 86.1323 112.211C86.1323 112.211 86.1323 112.211 86.1323 112.211C80.2913 115.338 74.4599 118.508 68.9537 122.262C63.9054 125.687 59.2549 129.683 54.9574 133.987C54.9397 134.005 54.9219 134.022 54.9041 134.04C48.367 141.013 45.3122 150.026 39.7963 157.212C39.788 157.223 39.7797 157.233 39.7714 157.244C34.2589 164.683 30.0201 172.797 24.3352 179.829C24.3288 179.837 24.3223 179.844 24.3159 179.852C19.1593 186.255 16.2165 193.856 12.2981 200.72C12.2915 200.732 12.2849 200.744 12.2783 200.756C3.69386 216.381 1.81934 234.351 0.185089 251.557C0.180072 251.605 0.175142 251.653 0.170297 251.701C-0.791688 264.041 2.55577 275.75 4.3497 287.558C4.35642 287.597 4.36317 287.636 4.36995 287.675C6.33416 299.392 12.1057 310.599 21.0055 318.599C21.0561 318.645 21.1068 318.691 21.1576 318.737C27.0884 324.228 33.1086 329.906 40.0477 334.376C40.0998 334.41 40.152 334.443 40.2042 334.477C51.7086 342.077 65.1285 345.728 78.1972 349.021C78.234 349.03 78.2709 349.04 78.3078 349.049C91.3211 352.327 104.749 352.8 117.923 353.526L118.14 353.517C118.163 353.514 118.186 353.511 118.209 353.507C128.441 352.006 138.586 350.246 148.754 348.493C153.196 347.723 157.637 346.945 162.077 346.162C162.08 346.162 162.083 346.161 162.086 346.161L161.923 346.175C163.909 346.129 165.688 346.419 167.474 347.572C167.608 347.65 167.771 347.672 167.925 347.636C168.08 347.6 168.213 347.511 168.299 347.382C168.384 347.254 168.416 347.097 168.389 346.94C168.363 346.784 168.28 346.641 168.157 346.548C168.157 346.548 168.157 346.548 168.157 346.548C166.568 345.174 164.142 344.131 161.914 344.215L161.751 344.23C161.748 344.23 161.745 344.231 161.742 344.231C157.3 344.988 152.856 345.737 148.412 346.477C138.242 348.161 128.076 349.858 117.9 351.351C117.878 351.354 117.855 351.357 117.832 351.36L118.049 351.351C104.817 350.625 91.5717 350.168 78.8264 346.964C78.7902 346.955 78.7541 346.946 78.718 346.937C65.6652 343.659 52.5387 340.071 41.3572 332.692C41.3063 332.659 41.2554 332.626 41.2045 332.593C34.4465 328.247 28.555 322.724 22.5623 317.193C22.5108 317.146 22.4594 317.099 22.4081 317.053C13.8536 309.385 8.28885 298.66 6.36423 287.327C6.3576 287.289 6.351 287.251 6.34443 287.213C4.51287 275.41 1.20597 263.587 2.12254 251.896C2.12705 251.85 2.13164 251.804 2.13632 251.758C3.72423 234.529 5.58509 216.819 13.8741 201.652C13.8805 201.64 13.8868 201.629 13.8932 201.617C17.8598 194.601 20.7696 187.074 25.6796 180.949C25.6858 180.941 25.6919 180.934 25.6981 180.926C31.4844 173.704 35.7347 165.496 41.0673 158.233C41.0753 158.222 41.0832 158.212 41.0912 158.201C46.7464 150.703 49.7409 141.619 55.926 135.064C55.9436 135.046 55.9612 135.028 55.9788 135.011C60.2345 130.749 64.7978 126.83 69.7694 123.457C75.191 119.759 80.9841 116.607 86.8131 113.487Z" fill="#050505"/>
<path d="M174.217 342.22C174.049 342.01 173.805 341.875 173.538 341.846C173.271 341.816 173.002 341.893 172.792 342.061C172.583 342.229 172.448 342.474 172.418 342.741C172.388 343.008 172.466 343.276 172.634 343.486C172.634 343.486 172.634 343.486 172.634 343.486C175.627 347.23 178.819 350.82 182.214 354.204C189.826 361.84 198.555 368.257 207.581 374.012C207.607 374.029 207.633 374.046 207.66 374.063C215.7 379.501 225.148 382.713 234.422 384.961C234.474 384.975 234.525 384.988 234.577 385.002C245.801 387.93 257.367 389.263 268.864 389.97C268.942 389.975 269.019 389.98 269.096 389.985C289.401 391.611 310.237 389.51 329.858 385.577C329.861 385.577 329.863 385.577 329.866 385.577C341.296 384.769 351.674 378.965 360.927 373.308C360.977 373.281 361.026 373.254 361.076 373.227C369.448 368.694 378.201 364.907 386.656 360.205C386.69 360.185 386.725 360.165 386.759 360.146C396.262 354.905 404.742 347.466 411.068 338.638L411.018 338.701C411.024 338.693 411.031 338.686 411.037 338.678C412.264 337.258 413.447 335.797 414.576 334.294C416.095 332.273 417.51 330.176 418.842 328.04C418.842 328.04 418.842 328.04 418.842 328.04L418.79 328.116C420.099 326.422 421.318 324.641 423.158 323.573C423.238 323.532 423.308 323.471 423.351 323.39C423.393 323.31 423.405 323.219 423.383 323.134C423.36 323.049 423.305 322.976 423.228 322.927C423.152 322.879 423.06 322.86 422.97 322.863C422.97 322.863 422.97 322.863 422.97 322.863C420.406 323.109 418.428 324.942 417.017 326.792L416.965 326.868C416.965 326.868 416.965 326.868 416.964 326.868C415.658 328.963 414.284 331.003 412.809 332.968C411.713 334.43 410.564 335.85 409.367 337.236C409.361 337.243 409.354 337.25 409.348 337.258L409.298 337.32C403.061 345.994 394.995 353.039 385.65 358.205C385.616 358.224 385.583 358.244 385.549 358.263C377.293 362.853 368.461 366.678 360.015 371.249C359.965 371.276 359.914 371.303 359.864 371.33C350.316 377.154 340.64 382.538 329.667 383.35C329.665 383.35 329.662 383.351 329.659 383.351C309.478 387.364 289.55 389.375 269.233 387.807C269.156 387.802 269.079 387.797 269.002 387.793C257.558 387.101 246.164 385.817 235.102 382.959C235.05 382.946 234.998 382.933 234.947 382.919C225.637 380.673 216.669 377.689 208.754 372.356C208.727 372.339 208.701 372.322 208.675 372.305C199.706 366.586 191.13 360.275 183.645 352.768C180.307 349.441 177.167 345.909 174.217 342.22Z" fill="#050505"/>
<path d="M425.442 326.969C425.321 326.71 425.102 326.51 424.834 326.413C424.565 326.316 424.269 326.329 424.01 326.45C423.751 326.571 423.551 326.79 423.454 327.059C423.357 327.328 423.37 327.624 423.491 327.882C423.491 327.882 423.491 327.882 423.491 327.882C425.988 333.216 428.813 338.457 432.3 343.274C436.239 348.767 440.993 353.527 445.615 358.28C445.62 358.285 445.625 358.29 445.63 358.295C452.665 365.532 461.595 370.129 469.64 375.539C469.642 375.54 469.644 375.541 469.646 375.543C478.703 380.826 488.78 381.093 498.33 382.979C498.346 382.982 498.363 382.985 498.38 382.988C516.033 385.424 533.704 385.895 551.447 384.888C551.449 384.887 551.45 384.887 551.452 384.887C562.498 384.096 573.582 382.839 584.484 380.68C584.495 380.678 584.505 380.676 584.516 380.674C596.744 378.184 608.764 374.681 620.076 369.151C620.096 369.14 620.116 369.13 620.137 369.119C627.046 365.574 634.535 363.164 641.92 360.312C641.946 360.302 641.972 360.292 641.998 360.282C649.492 357.329 654.647 351.338 660.52 346.806C660.523 346.804 660.525 346.802 660.528 346.8C667.549 341.202 673.812 334.823 680.617 329.282C680.623 329.277 680.63 329.272 680.637 329.267C687.951 323.351 693.225 315.649 698.819 308.53C698.822 308.526 698.826 308.522 698.829 308.518C701.721 304.854 703.646 300.638 705.416 296.521C706.151 294.817 706.865 293.118 707.626 291.46L707.611 291.492C707.612 291.491 707.612 291.49 707.613 291.488C708.348 290.037 708.791 288.161 709.402 286.494C709.403 286.492 709.404 286.49 709.405 286.489C710.215 284.301 710.622 282.055 711.074 279.843C711.1 279.709 711.073 279.57 710.997 279.457C710.922 279.344 710.804 279.265 710.671 279.238C710.537 279.212 710.398 279.239 710.285 279.315C710.172 279.39 710.093 279.508 710.066 279.641C710.066 279.641 710.066 279.641 710.066 279.641C709.617 281.851 709.206 284.072 708.443 286.125C708.443 286.127 708.442 286.129 708.441 286.131C707.844 287.739 706.405 288.819 705.565 290.469C705.564 290.47 705.563 290.472 705.563 290.473L705.547 290.505C704.765 292.209 704.045 293.924 703.316 295.617C701.561 299.71 699.712 303.722 697.038 307.107C697.035 307.111 697.032 307.116 697.028 307.12C691.382 314.326 686.171 321.878 679.215 327.492C679.209 327.498 679.202 327.503 679.195 327.509C672.223 333.191 665.996 339.539 659.115 345.021C659.113 345.023 659.11 345.025 659.107 345.027C653.089 349.714 647.957 355.546 641.181 358.172C641.155 358.182 641.13 358.192 641.104 358.202C633.805 361.024 626.233 363.449 619.103 367.103C619.083 367.113 619.064 367.123 619.044 367.133C608.09 372.496 596.101 376.01 584.082 378.451C584.071 378.453 584.061 378.455 584.051 378.457C573.242 380.597 562.299 381.843 551.281 382.638C551.28 382.638 551.278 382.638 551.277 382.638C533.834 383.644 516.015 383.173 498.752 380.796C498.736 380.794 498.72 380.791 498.704 380.788C489.172 378.959 478.887 378.455 470.866 373.716C470.864 373.715 470.862 373.714 470.861 373.713C462.665 368.231 453.88 363.709 447.173 356.792C447.168 356.787 447.163 356.782 447.158 356.777C442.522 352.012 437.86 347.333 434.047 342.014C430.666 337.343 427.905 332.231 425.442 326.969Z" fill="#050505"/>
</svg>
